<svg xmlns="http://www.w3.org/2000/svg" width="16" height="16" viewBox="0 0 16 16">
  <path d="M2 3a2 2 0 0 0-2 2v6a2 2 0 0 0 2 2h12a2 2 0 0 0 2-2V5a2 2 0 0 0-2-2H2Zm0 1h12a1 1 0 0 1 1 1v6a1 1 0 0 1-1 1H2a1 1 0 0 1-1-1V5a1 1 0 0 1 1-1Zm1 2a.75.75 0 1 0 0 1.5A.75.75 0 0 0 3 6Zm2.5 0a.75.75 0 1 0 0 1.5.75.75 0 0 0 0-1.5ZM8 6a.75.75 0 1 0 0 1.5A.75.75 0 0 0 8 6Zm2.5 0a.75.75 0 1 0 0 1.5.75.75 0 0 0 0-1.5ZM13 6a.75.75 0 1 0 0 1.5A.75.75 0 0 0 13 6ZM3 9a.5.5 0 0 0 0 1h1a.5.5 0 0 0 0-1H3Zm3 0a.5.5 0 0 0 0 1h4a.5.5 0 0 0 0-1H6Zm6 0a.5.5 0 0 0 0 1h1a.5.5 0 0 0 0-1h-1Z"/>
</svg>
